<svg xmlns="http://www.w3.org/2000/svg" xmlns:xlink="http://www.w3.org/1999/xlink" width="120" zoomAndPan="magnify" viewBox="0 0 90 30.000001" height="40" preserveAspectRatio="xMidYMid meet" version="1.0"><defs><g/><clipPath id="39f851f6a6"><path d="M 4.355469 8.257812 L 22.65625 8.257812 L 22.65625 24.8125 L 4.355469 24.8125 Z M 4.355469 8.257812 " clip-rule="nonzero"/></clipPath><clipPath id="abeb68e328"><path d="M 5.804688 8.257812 L 21.175781 8.257812 C 21.976562 8.257812 22.625 8.90625 22.625 9.707031 L 22.625 23.363281 C 22.625 24.164062 21.976562 24.8125 21.175781 24.8125 L 5.804688 24.8125 C 5.003906 24.8125 4.355469 24.164062 4.355469 23.363281 L 4.355469 9.707031 C 4.355469 8.90625 5.003906 8.257812 5.804688 8.257812 Z M 5.804688 8.257812 " clip-rule="nonzero"/></clipPath><clipPath id="efc21f2030"><path d="M 8 10.273438 L 19 10.273438 L 19 18 L 8 18 Z M 8 10.273438 " clip-rule="nonzero"/></clipPath><clipPath id="d8c984d601"><path d="M 8 15 L 19 15 L 19 22.613281 L 8 22.613281 Z M 8 15 " clip-rule="nonzero"/></clipPath></defs><g clip-path="url(#39f851f6a6)"><g clip-path="url(#abeb68e328)"><path fill="#ffffff" d="M 4.355469 8.257812 L 22.59375 8.257812 L 22.59375 24.8125 L 4.355469 24.8125 Z M 4.355469 8.257812 " fill-opacity="1" fill-rule="nonzero"/></g></g><g clip-path="url(#efc21f2030)"><path fill="#407bff" d="M 12.46875 17.339844 C 12.46875 17.339844 10.65625 17.457031 9.441406 16.925781 C 7.441406 16.054688 7.261719 13.726562 11.535156 13.375 C 14.230469 13.15625 17.925781 12.789062 18.59375 10.273438 C 18.59375 10.273438 19.761719 13.46875 12.664062 15.023438 C 6.933594 16.28125 12.46875 17.339844 12.46875 17.339844 " fill-opacity="1" fill-rule="nonzero"/></g><g clip-path="url(#d8c984d601)"><path fill="#407bff" d="M 14.507812 15.71875 C 14.507812 15.71875 16.316406 15.601562 17.53125 16.132812 C 19.53125 17.003906 19.714844 19.335938 15.441406 19.683594 C 12.746094 19.902344 9.050781 20.269531 8.382812 22.785156 C 8.382812 22.785156 7.214844 19.589844 14.308594 18.035156 C 20.042969 16.777344 14.507812 15.71875 14.507812 15.71875 " fill-opacity="1" fill-rule="nonzero"/></g><g fill="#ffffff" fill-opacity="1"><g transform="translate(24.950271, 20.273093)"><g><path d="M 3.703125 -1.796875 C 4.160156 -1.796875 4.484375 -1.835938 4.671875 -1.921875 C 4.867188 -2.015625 4.96875 -2.191406 4.96875 -2.453125 C 4.96875 -2.648438 4.84375 -2.820312 4.59375 -2.96875 C 4.34375 -3.125 3.96875 -3.296875 3.46875 -3.484375 C 3.082031 -3.628906 2.726562 -3.78125 2.40625 -3.9375 C 2.082031 -4.09375 1.804688 -4.28125 1.578125 -4.5 C 1.359375 -4.71875 1.1875 -4.976562 1.0625 -5.28125 C 0.945312 -5.582031 0.890625 -5.945312 0.890625 -6.375 C 0.890625 -7.195312 1.195312 -7.847656 1.8125 -8.328125 C 2.425781 -8.804688 3.269531 -9.046875 4.34375 -9.046875 C 4.875 -9.046875 5.382812 -9 5.875 -8.90625 C 6.375 -8.8125 6.769531 -8.707031 7.0625 -8.59375 L 6.625 -6.65625 C 6.332031 -6.757812 6.015625 -6.847656 5.671875 -6.921875 C 5.328125 -7.003906 4.945312 -7.046875 4.53125 -7.046875 C 3.75 -7.046875 3.359375 -6.828125 3.359375 -6.390625 C 3.359375 -6.285156 3.375 -6.191406 3.40625 -6.109375 C 3.4375 -6.035156 3.5 -5.960938 3.59375 -5.890625 C 3.695312 -5.816406 3.835938 -5.738281 4.015625 -5.65625 C 4.191406 -5.570312 4.410156 -5.476562 4.671875 -5.375 C 5.222656 -5.175781 5.675781 -4.976562 6.03125 -4.78125 C 6.394531 -4.59375 6.675781 -4.382812 6.875 -4.15625 C 7.082031 -3.925781 7.226562 -3.671875 7.3125 -3.390625 C 7.394531 -3.109375 7.4375 -2.785156 7.4375 -2.421875 C 7.4375 -1.546875 7.109375 -0.882812 6.453125 -0.4375 C 5.804688 0.0078125 4.882812 0.234375 3.6875 0.234375 C 2.90625 0.234375 2.253906 0.164062 1.734375 0.03125 C 1.210938 -0.101562 0.851562 -0.210938 0.65625 -0.296875 L 1.078125 -2.328125 C 1.492188 -2.160156 1.925781 -2.03125 2.375 -1.9375 C 2.820312 -1.84375 3.265625 -1.796875 3.703125 -1.796875 Z M 3.703125 -1.796875 "/></g></g></g><g fill="#ffffff" fill-opacity="1"><g transform="translate(33.081234, 20.273093)"><g><path d="M 9.421875 -4.421875 C 9.421875 -3.734375 9.316406 -3.097656 9.109375 -2.515625 C 8.910156 -1.941406 8.617188 -1.453125 8.234375 -1.046875 C 7.859375 -0.640625 7.40625 -0.320312 6.875 -0.09375 C 6.34375 0.125 5.75 0.234375 5.09375 0.234375 C 4.445312 0.234375 3.859375 0.125 3.328125 -0.09375 C 2.796875 -0.320312 2.335938 -0.640625 1.953125 -1.046875 C 1.578125 -1.453125 1.28125 -1.941406 1.0625 -2.515625 C 0.851562 -3.097656 0.75 -3.734375 0.75 -4.421875 C 0.75 -5.117188 0.859375 -5.75 1.078125 -6.3125 C 1.296875 -6.882812 1.597656 -7.367188 1.984375 -7.765625 C 2.367188 -8.171875 2.828125 -8.484375 3.359375 -8.703125 C 3.890625 -8.929688 4.46875 -9.046875 5.09375 -9.046875 C 5.726562 -9.046875 6.3125 -8.929688 6.84375 -8.703125 C 7.375 -8.484375 7.828125 -8.171875 8.203125 -7.765625 C 8.585938 -7.367188 8.882812 -6.882812 9.09375 -6.3125 C 9.3125 -5.75 9.421875 -5.117188 9.421875 -4.421875 Z M 6.875 -4.421875 C 6.875 -5.191406 6.71875 -5.796875 6.40625 -6.234375 C 6.101562 -6.679688 5.664062 -6.90625 5.09375 -6.90625 C 4.519531 -6.90625 4.078125 -6.679688 3.765625 -6.234375 C 3.453125 -5.796875 3.296875 -5.191406 3.296875 -4.421875 C 3.296875 -3.648438 3.453125 -3.035156 3.765625 -2.578125 C 4.078125 -2.128906 4.519531 -1.90625 5.09375 -1.90625 C 5.664062 -1.90625 6.101562 -2.128906 6.40625 -2.578125 C 6.71875 -3.035156 6.875 -3.648438 6.875 -4.421875 Z M 6.875 -4.421875 "/></g></g></g><g fill="#ffffff" fill-opacity="1"><g transform="translate(43.257509, 20.273093)"><g><path d="M 4.6875 0.171875 C 3.96875 0.160156 3.378906 0.0820312 2.921875 -0.0625 C 2.472656 -0.207031 2.113281 -0.410156 1.84375 -0.671875 C 1.582031 -0.941406 1.40625 -1.265625 1.3125 -1.640625 C 1.21875 -2.015625 1.171875 -2.4375 1.171875 -2.90625 L 1.171875 -12.609375 L 3.671875 -13.015625 L 3.671875 -3.40625 C 3.671875 -3.175781 3.6875 -2.972656 3.71875 -2.796875 C 3.75 -2.617188 3.8125 -2.46875 3.90625 -2.34375 C 4.007812 -2.21875 4.148438 -2.113281 4.328125 -2.03125 C 4.503906 -1.957031 4.742188 -1.910156 5.046875 -1.890625 Z M 4.6875 0.171875 "/></g></g></g><g fill="#ffffff" fill-opacity="1"><g transform="translate(48.55521, 20.273093)"><g><path d="M 1.09375 -11.015625 L 3.59375 -11.421875 L 3.59375 -8.8125 L 6.59375 -8.8125 L 6.59375 -6.734375 L 3.59375 -6.734375 L 3.59375 -3.640625 C 3.59375 -3.109375 3.679688 -2.6875 3.859375 -2.375 C 4.046875 -2.0625 4.421875 -1.90625 4.984375 -1.90625 C 5.242188 -1.90625 5.515625 -1.929688 5.796875 -1.984375 C 6.085938 -2.035156 6.351562 -2.109375 6.59375 -2.203125 L 6.9375 -0.25 C 6.632812 -0.125 6.296875 -0.0195312 5.921875 0.0625 C 5.554688 0.15625 5.109375 0.203125 4.578125 0.203125 C 3.890625 0.203125 3.320312 0.109375 2.875 -0.078125 C 2.4375 -0.265625 2.082031 -0.519531 1.8125 -0.84375 C 1.539062 -1.175781 1.351562 -1.578125 1.25 -2.046875 C 1.144531 -2.515625 1.09375 -3.035156 1.09375 -3.609375 Z M 1.09375 -11.015625 "/></g></g></g><g fill="#ffffff" fill-opacity="1"><g transform="translate(55.998815, 20.273093)"><g><path d="M 0.75 -4.34375 C 0.75 -5.125 0.867188 -5.804688 1.109375 -6.390625 C 1.347656 -6.984375 1.664062 -7.472656 2.0625 -7.859375 C 2.457031 -8.253906 2.90625 -8.550781 3.40625 -8.75 C 3.914062 -8.945312 4.441406 -9.046875 4.984375 -9.046875 C 6.234375 -9.046875 7.21875 -8.660156 7.9375 -7.890625 C 8.664062 -7.128906 9.03125 -6.007812 9.03125 -4.53125 C 9.03125 -4.382812 9.023438 -4.222656 9.015625 -4.046875 C 9.003906 -3.867188 8.992188 -3.71875 8.984375 -3.59375 L 3.3125 -3.59375 C 3.375 -3.070312 3.613281 -2.660156 4.03125 -2.359375 C 4.457031 -2.054688 5.03125 -1.90625 5.75 -1.90625 C 6.207031 -1.90625 6.65625 -1.945312 7.09375 -2.03125 C 7.539062 -2.113281 7.90625 -2.21875 8.1875 -2.34375 L 8.515625 -0.3125 C 8.378906 -0.25 8.195312 -0.179688 7.96875 -0.109375 C 7.75 -0.046875 7.503906 0.0078125 7.234375 0.0625 C 6.960938 0.113281 6.671875 0.15625 6.359375 0.1875 C 6.046875 0.21875 5.734375 0.234375 5.421875 0.234375 C 4.617188 0.234375 3.925781 0.117188 3.34375 -0.109375 C 2.757812 -0.347656 2.273438 -0.671875 1.890625 -1.078125 C 1.503906 -1.484375 1.21875 -1.96875 1.03125 -2.53125 C 0.84375 -3.09375 0.75 -3.695312 0.75 -4.34375 Z M 6.625 -5.296875 C 6.613281 -5.503906 6.578125 -5.707031 6.515625 -5.90625 C 6.453125 -6.113281 6.351562 -6.296875 6.21875 -6.453125 C 6.09375 -6.609375 5.929688 -6.734375 5.734375 -6.828125 C 5.546875 -6.929688 5.304688 -6.984375 5.015625 -6.984375 C 4.734375 -6.984375 4.488281 -6.9375 4.28125 -6.84375 C 4.082031 -6.75 3.914062 -6.625 3.78125 -6.46875 C 3.65625 -6.3125 3.554688 -6.128906 3.484375 -5.921875 C 3.410156 -5.710938 3.351562 -5.503906 3.3125 -5.296875 Z M 6.625 -5.296875 "/></g></g></g><g fill="#ffffff" fill-opacity="1"><g transform="translate(65.789497, 20.273093)"><g><path d="M 0.75 -4.40625 C 0.75 -5.039062 0.851562 -5.640625 1.0625 -6.203125 C 1.269531 -6.773438 1.566406 -7.269531 1.953125 -7.6875 C 2.347656 -8.101562 2.820312 -8.429688 3.375 -8.671875 C 3.9375 -8.921875 4.578125 -9.046875 5.296875 -9.046875 C 5.765625 -9.046875 6.191406 -9.003906 6.578125 -8.921875 C 6.972656 -8.835938 7.359375 -8.71875 7.734375 -8.5625 L 7.203125 -6.578125 C 6.972656 -6.660156 6.71875 -6.734375 6.4375 -6.796875 C 6.15625 -6.867188 5.84375 -6.90625 5.5 -6.90625 C 4.757812 -6.90625 4.207031 -6.675781 3.84375 -6.21875 C 3.476562 -5.757812 3.296875 -5.15625 3.296875 -4.40625 C 3.296875 -3.613281 3.46875 -3 3.8125 -2.5625 C 4.15625 -2.125 4.75 -1.90625 5.59375 -1.90625 C 5.894531 -1.90625 6.21875 -1.929688 6.5625 -1.984375 C 6.914062 -2.046875 7.238281 -2.140625 7.53125 -2.265625 L 7.875 -0.21875 C 7.582031 -0.09375 7.21875 0.0078125 6.78125 0.09375 C 6.351562 0.1875 5.875 0.234375 5.34375 0.234375 C 4.539062 0.234375 3.847656 0.113281 3.265625 -0.125 C 2.679688 -0.363281 2.203125 -0.691406 1.828125 -1.109375 C 1.460938 -1.523438 1.191406 -2.015625 1.015625 -2.578125 C 0.835938 -3.140625 0.75 -3.75 0.75 -4.40625 Z M 0.75 -4.40625 "/></g></g></g><g fill="#ffffff" fill-opacity="1"><g transform="translate(74.171937, 20.273093)"><g><path d="M 1.171875 0 L 1.171875 -12.609375 L 3.671875 -13.015625 L 3.671875 -8.78125 C 3.835938 -8.84375 4.050781 -8.894531 4.3125 -8.9375 C 4.582031 -8.988281 4.835938 -9.015625 5.078125 -9.015625 C 5.796875 -9.015625 6.390625 -8.914062 6.859375 -8.71875 C 7.335938 -8.53125 7.71875 -8.253906 8 -7.890625 C 8.289062 -7.535156 8.492188 -7.113281 8.609375 -6.625 C 8.722656 -6.132812 8.78125 -5.585938 8.78125 -4.984375 L 8.78125 0 L 6.28125 0 L 6.28125 -4.671875 C 6.28125 -5.484375 6.175781 -6.054688 5.96875 -6.390625 C 5.769531 -6.722656 5.390625 -6.890625 4.828125 -6.890625 C 4.609375 -6.890625 4.398438 -6.867188 4.203125 -6.828125 C 4.003906 -6.785156 3.828125 -6.742188 3.671875 -6.703125 L 3.671875 0 Z M 1.171875 0 "/></g></g></g></svg>